<svg width="649" height="379" viewBox="0 0 649 379" fill="none" xmlns="http://www.w3.org/2000/svg">
<g clip-path="url(#clip0_3068_669)">
<path d="M551.767 376.894C551.767 376.894 649.342 333.459 647.076 245.832C644.81 158.206 552.343 117.453 489.547 171.545C426.769 225.654 386.145 180.275 353.614 134.554C321.083 88.8323 248.541 31.1408 153.34 57.7995C53.6249 85.7363 22.9283 186.809 32.8188 254.275C39.922 302.732 65.8713 343.809 101.225 375.382C102.376 376.408 103.545 377.416 104.75 378.424L551.767 376.894Z" fill="#CFECFF"/>
<path d="M368.037 347.931H286.467V367.912H368.037V347.931Z" fill="#005FA0"/>
<path d="M383.43 378.334H271.073C268.196 378.334 265.858 375.994 265.858 373.114C265.858 370.234 268.196 367.894 271.073 367.894H383.43C386.307 367.894 388.645 370.234 388.645 373.114C388.645 376.012 386.307 378.334 383.43 378.334Z" fill="#004E84"/>
<path d="M510.748 118.047C510.748 111.549 505.479 106.275 498.988 106.275H155.516C149.024 106.275 143.755 111.549 143.755 118.047V317.042H510.766V118.047H510.748Z" fill="#004E84"/>
<path d="M494.996 123.123H159.49V301.688H494.996V123.123Z" fill="#B3E0FF"/>
<path d="M155.516 349.983H498.988C505.479 349.983 510.748 344.709 510.748 338.211V317.06H143.755V338.211C143.755 344.709 149.024 349.983 155.516 349.983Z" fill="white"/>
<path d="M334.229 333.513C334.229 337.365 331.1 340.497 327.252 340.497C323.403 340.497 320.274 337.365 320.274 333.513C320.274 329.661 323.403 326.529 327.252 326.529C331.1 326.529 334.229 329.661 334.229 333.513Z" fill="#005FA0"/>
<g opacity="0.57">
<path d="M252.659 123.123L176.07 301.706H203.17L280.622 123.123H252.659Z" fill="white"/>
<path d="M448.078 123.123L371.489 301.706H398.589L476.023 123.123H448.078Z" fill="white"/>
<path d="M315.185 123.123L238.578 301.706H318.817L396.252 123.123H315.185Z" fill="white"/>
</g>
<path d="M325.777 160.402H183.389V261.367H325.777V160.402Z" fill="white"/>
<path d="M325.777 160.402H183.389V261.367H325.777V160.402Z" stroke="#8DC4EA" stroke-width="3.0138" stroke-miterlimit="10" stroke-linecap="round" stroke-linejoin="round"/>
<path d="M342.105 168.016H472.265" stroke="white" stroke-width="2.8055" stroke-miterlimit="10"/>
<path d="M342.105 198.473H422.129" stroke="white" stroke-width="2.8055" stroke-miterlimit="10"/>
<path d="M342.105 183.083H365.052" stroke="white" stroke-width="2.8055" stroke-miterlimit="10"/>
<path d="M342.105 218.274H472.265" stroke="white" stroke-width="2.8055" stroke-miterlimit="10"/>
<path d="M342.105 248.749H472.265" stroke="white" stroke-width="2.8055" stroke-miterlimit="10"/>
<path d="M342.105 233.358H418.892" stroke="white" stroke-width="2.8055" stroke-miterlimit="10"/>
<path d="M282.546 215.897C285.63 198.877 274.347 182.577 257.345 179.489C240.342 176.402 224.058 187.696 220.973 204.715C217.888 221.735 229.171 238.035 246.174 241.123C263.177 244.21 279.461 232.916 282.546 215.897Z" fill="#C20808"/>
<path d="M235.916 210.282H266.649" stroke="white" stroke-width="4.2082" stroke-miterlimit="10" stroke-linecap="round" stroke-linejoin="round"/>
<path d="M532.687 270.421L539.448 369.946L550.13 369.928L552.342 270.385L532.687 270.421Z" fill="#004E84"/>
<path d="M530.601 378.1H550.076V369.064H539.628C534.629 369.064 530.601 373.114 530.601 378.1Z" fill="#243051"/>
<path d="M553.637 378.1H573.939L573.112 369.064H562.664C557.683 369.064 553.637 373.114 553.637 378.1Z" fill="#243051"/>
<path d="M566.315 270.493L573.112 369.064L562.664 369.406L545.221 270.493H566.315Z" fill="#005FA0"/>
<path d="M548.08 219.246L575.792 244.014C578.093 246.066 581.546 246.138 583.92 244.194C586.635 241.962 586.995 237.948 584.729 235.266C584.729 235.266 571.35 217.284 563.833 211.308L548.08 219.246Z" fill="#C20808"/>
<path d="M590.862 279.529C590.862 283.201 587.877 286.19 584.208 286.19C580.54 286.19 577.555 283.201 577.555 279.529C577.555 275.857 580.54 272.869 584.208 272.869C587.895 272.869 590.862 275.839 590.862 279.529Z" fill="#F9CCB7"/>
<path d="M575.63 241.224L579.281 274.381H588.776L586.618 240.144C586.384 236.904 583.435 234.564 580.252 235.068C577.302 235.536 575.27 238.254 575.63 241.224Z" fill="#C20808"/>
<path d="M545.238 206.663C545.238 206.663 531.643 207.095 530.924 220.704C530.187 234.402 532.507 270.493 532.507 270.493H566.314L567.177 226.284C569.281 214.476 563.311 206.951 551.191 206.501C549.356 206.429 547.378 206.483 545.238 206.663Z" fill="#C20808"/>
<path d="M566.98 236.112L561.153 230.928L566.764 246.895L566.98 236.112Z" fill="#D72E57"/>
<path d="M499.203 194.945C499.203 198.635 496.218 201.605 492.549 201.605C488.881 201.605 485.896 198.617 485.896 194.945C485.896 191.273 488.881 188.285 492.549 188.285C496.218 188.267 499.203 191.255 499.203 194.945Z" fill="#F9CCB7"/>
<path d="M513.535 231.144L499.203 198.545L490.067 201.425L502.997 234.402C503.878 237.516 507.241 239.226 510.262 238.074C513.049 237.048 514.506 233.97 513.535 231.144Z" fill="#C20808"/>
<path d="M539.952 207.851C522.041 215.304 505.911 226.734 505.911 226.734C503.213 228.21 501.99 231.45 503.033 234.348C504.22 237.66 507.889 239.352 511.18 238.092L538.496 224.79L539.952 207.851Z" fill="#C20808"/>
<path d="M530.781 228.534L530.925 220.704L524.721 231.486L530.781 228.534Z" fill="#D72E57"/>
<path d="M541.301 198.923L541.732 208.067C541.822 210.066 543.081 211.812 544.915 212.55C548.422 213.954 552.18 211.146 551.821 207.365L551.263 198.275L541.301 198.923Z" fill="#F9CCB7"/>
<path d="M541.606 205.457C541.606 205.457 550.076 206.627 551.281 198.275C552.486 189.941 543.225 193.379 543.225 193.379L541.354 200.219L541.606 205.457Z" fill="#E0A589"/>
<path d="M535.348 177.287C529.756 183.317 530.115 192.749 536.14 198.347C542.164 203.945 551.587 203.585 557.179 197.555C562.772 191.525 562.412 182.093 556.388 176.495C550.364 170.897 540.941 171.257 535.348 177.287Z" fill="#F9CCB7"/>
<mask id="mask0_3068_669" style="mask-type:luminance" maskUnits="userSpaceOnUse" x="531" y="172" width="31" height="31">
<path d="M535.348 177.287C529.756 183.317 530.115 192.749 536.14 198.347C542.164 203.945 551.587 203.585 557.179 197.555C562.772 191.525 562.412 182.093 556.388 176.495C550.364 170.897 540.941 171.257 535.348 177.287Z" fill="white"/>
</mask>
<g mask="url(#mask0_3068_669)">
<path d="M550.616 191.903C550.616 191.903 544.735 202.559 553.007 205.493C561.279 208.428 563.653 185.387 563.653 185.387L554.716 167.836L532.903 166.324L531.68 173.885C531.68 173.885 533.766 181.247 552.054 188.177L550.616 191.903Z" fill="#243051"/>
</g>
<mask id="mask1_3068_669" style="mask-type:luminance" maskUnits="userSpaceOnUse" x="531" y="172" width="31" height="31">
<path d="M535.348 177.287C529.756 183.317 530.115 192.749 536.14 198.347C542.164 203.945 551.587 203.585 557.179 197.555C562.772 191.525 562.412 182.093 556.388 176.495C550.364 170.897 540.941 171.257 535.348 177.287Z" fill="white"/>
</mask>
<g mask="url(#mask1_3068_669)">
<path d="M546.174 183.533L548.745 192.227L555.327 188.375L546.174 183.533Z" fill="#243051"/>
</g>
<path d="M549.177 188.933C547.684 190.553 547.774 193.073 549.393 194.567C551.011 196.061 553.529 195.971 555.021 194.351C556.514 192.731 556.424 190.211 554.805 188.717C553.187 187.223 550.669 187.313 549.177 188.933Z" fill="#F9CCB7"/>
<path d="M531.032 182.615C531.032 182.615 530.295 171.958 539.268 166.396C546.659 161.824 556.64 164.326 560.722 171.994C562.646 175.595 563.725 179.123 562.466 186.107L531.032 182.615Z" fill="#F49300"/>
<path d="M562.017 187.655C561.963 187.655 561.909 187.655 561.837 187.655L526.105 183.821C525.26 183.731 524.648 182.957 524.738 182.111C524.828 181.265 525.583 180.653 526.447 180.743L562.179 184.577C563.024 184.667 563.635 185.441 563.545 186.287C563.455 187.079 562.79 187.655 562.017 187.655Z" fill="#DC8400"/>
<path d="M552.526 56.3743C556.046 41.3944 546.769 26.3939 531.803 22.8698C516.838 19.3456 501.852 28.6324 498.332 43.6123C494.811 58.5922 504.089 73.5927 519.054 77.1168C534.019 80.6409 549.005 71.3542 552.526 56.3743Z" fill="#C20808"/>
<path d="M529.505 62.0476C529.505 67.4298 521.358 67.4298 521.358 62.0476C521.358 56.6295 529.505 56.6295 529.505 62.0476ZM529.019 34.5969L528.839 54.7034H521.988C521.988 47.1072 521.844 42.2471 521.844 34.5969H529.019Z" fill="white"/>
<path d="M347.609 0.34201L349.893 6.30017C351.295 9.97226 354.19 12.8523 357.859 14.2744L363.811 16.5604L357.859 18.8465C354.19 20.2505 351.313 23.1486 349.893 26.8207L347.609 32.7789L345.325 26.8207C343.922 23.1486 341.027 20.2685 337.359 18.8465L331.406 16.5604L337.359 14.2744C341.027 12.8703 343.904 9.97226 345.325 6.30017L347.609 0.34201Z" fill="#CFECFF"/>
<path d="M411.465 51.6614L412.994 55.6575C413.929 58.1055 415.871 60.0496 418.335 61.0036L422.327 62.5337L418.335 64.0637C415.889 64.9997 413.947 66.9438 412.994 69.4098L411.465 73.4059L409.937 69.4098C409.001 66.9618 407.059 65.0177 404.596 64.0637L400.604 62.5337L404.596 61.0036C407.041 60.0676 408.984 58.1235 409.937 55.6575L411.465 51.6614Z" fill="#CFECFF"/>
<path d="M24.5469 85.7723L25.7877 89.0124C26.561 91.0104 28.1255 92.5765 30.1216 93.3505L33.3585 94.5925L30.1216 95.8345C28.1255 96.6086 26.561 98.1746 25.7877 100.173L24.5469 103.413L23.3061 100.173C22.5329 98.1746 20.9684 96.6086 18.9723 95.8345L15.7354 94.5925L18.9723 93.3505C20.9684 92.5765 22.5329 91.0104 23.3061 89.0124L24.5469 85.7723Z" fill="#CFECFF"/>
<path d="M614.905 102.207L616.146 105.447C616.919 107.445 618.484 109.011 620.48 109.785L623.717 111.027L620.48 112.269C618.484 113.043 616.919 114.609 616.146 116.607L614.905 119.847L613.665 116.607C612.891 114.609 611.327 113.043 609.331 112.269L606.094 111.027L609.331 109.785C611.327 109.011 612.891 107.445 613.665 105.447L614.905 102.207Z" fill="#CFECFF"/>
<path d="M165.154 36.001L171.574 42.5351C172.977 43.9572 175.063 44.4252 176.933 43.7412C180.476 42.4271 181.393 37.837 178.623 35.2629L172.15 28.8548L165.154 36.001Z" fill="#F9CCB7"/>
<path d="M169.74 40.6451C169.74 40.6451 173.75 32.3649 172.167 28.8368C168.715 21.1506 162.906 30.5828 162.906 30.5828L166.089 36.937L169.74 40.6451Z" fill="#E0A589"/>
<path d="M146.29 23.8506C146.147 32.0768 152.692 38.863 160.91 39.007C169.129 39.151 175.908 32.5988 176.052 24.3726C176.196 16.1464 169.65 9.36022 161.432 9.21622C153.214 9.05422 146.434 15.6244 146.29 23.8506Z" fill="#F9CCB7"/>
<mask id="mask2_3068_669" style="mask-type:luminance" maskUnits="userSpaceOnUse" x="146" y="9" width="31" height="31">
<path d="M146.29 23.8506C146.147 32.0768 152.692 38.863 160.91 39.007C169.129 39.151 175.908 32.5988 176.052 24.3726C176.196 16.1464 169.65 9.36022 161.432 9.21622C153.214 9.05422 146.434 15.6244 146.29 23.8506Z" fill="white"/>
</mask>
<g mask="url(#mask2_3068_669)">
<path d="M167.42 24.5346C167.42 24.5346 170.136 36.3969 178.246 33.0489C186.356 29.7188 172.779 10.9623 172.779 10.9623L154.419 3.87009L137.155 17.3164L139.079 28.9627C139.079 28.9627 145.23 24.5706 163.482 17.5144L167.42 24.5346Z" fill="#243051"/>
</g>
<mask id="mask3_3068_669" style="mask-type:luminance" maskUnits="userSpaceOnUse" x="146" y="9" width="31" height="31">
<path d="M146.29 23.8506C146.147 32.0768 152.692 38.863 160.91 39.007C169.129 39.151 175.908 32.5988 176.052 24.3726C176.196 16.1464 169.65 9.36022 161.432 9.21622C153.214 9.05422 146.434 15.6244 146.29 23.8506Z" fill="white"/>
</mask>
<g mask="url(#mask3_3068_669)">
<path d="M158.519 21.2765L166.233 26.0287L168.571 18.7745L158.519 21.2765Z" fill="#243051"/>
</g>
<path d="M168.265 27.3427C168.265 27.3427 181.105 62.3716 197.092 46.3872C211.28 32.2028 189.827 23.5986 184.018 22.0686C179.577 20.8985 177.868 19.3865 172.275 14.1844L161.162 15.7864L168.265 27.3427Z" fill="#243051"/>
<path d="M164.363 23.2926C164.327 25.4887 166.071 27.3067 168.283 27.3427C170.477 27.3787 172.293 25.6327 172.329 23.4186C172.365 21.2225 170.621 19.4045 168.409 19.3685C166.215 19.3325 164.399 21.0965 164.363 23.2926Z" fill="#F9CCB7"/>
<path d="M144.833 26.1547C144.833 26.1547 138.971 17.2264 144.042 7.9742C148.232 0.359999 158.141 -2.37607 165.478 2.30405C168.912 4.50011 171.592 7.03818 173.912 13.7344L144.833 26.1547Z" fill="#F49300"/>
<path d="M174.289 15.3004C174.235 15.3364 174.181 15.3544 174.127 15.3724L141.111 29.5928C140.32 29.9348 139.421 29.5568 139.079 28.7647C138.737 27.9727 139.097 27.0907 139.906 26.7307L172.923 12.5103C173.714 12.1683 174.613 12.5463 174.955 13.3383C175.26 14.0764 174.955 14.9224 174.289 15.3004Z" fill="#DC8400"/>
<path d="M144.204 109.443L111.313 143.194L102.897 139.468L131.364 99.0566C134.152 94.4305 140.751 94.1065 143.952 98.4626C145.858 101.019 145.966 106.779 144.204 109.443Z" fill="#004E84"/>
<path d="M90.2197 139.288L106.854 150.952L111.35 143.068L102.79 137.074C98.7076 134.212 93.079 135.202 90.2197 139.288Z" fill="#243051"/>
<path d="M166.935 89.3184L133.648 95.2405L140.5 108.237H185.133C185.133 108.237 198.548 107.913 192.362 93.1885L166.935 89.3184Z" fill="#005FA0"/>
<path d="M145.949 99.4886L161.792 151.96L152.854 157.09L127.804 106.401C125.25 101.631 128.344 95.7985 133.72 95.2585C136.885 94.9345 144.564 96.6265 145.949 99.4886Z" fill="#005FA0"/>
<path d="M148.772 169.042L165.37 160.294L161.791 151.978L152.548 156.856C148.142 159.16 146.452 164.632 148.772 169.042Z" fill="#243051"/>
<path d="M165.028 49.8073C165.028 49.8073 166.377 43.9211 168.067 42.1031C169.272 40.8071 173.642 36.6849 176.051 35.8029C176.771 35.5329 177.562 35.6229 178.209 36.0189C181.087 37.783 188.981 43.4891 192.847 55.1354C196.57 66.3497 197.379 98.2646 197.379 98.2646C186.787 105.159 166.952 89.3003 166.952 89.3003C167.456 69.4278 162.546 68.4198 165.028 49.8073Z" fill="#C20808"/>
<path d="M162.906 90.0383L178.533 90.7584C183.838 91.0644 186.194 87.0863 186.446 83.7382L187.147 56.7555L162.906 90.0383Z" fill="#D72E57"/>
<path d="M148.826 86.2042L139.582 82.8922C138.827 82.6221 138 82.7661 137.388 83.2702L133.27 86.6182C132.066 87.6083 132.335 89.5163 133.774 90.1283C134.511 90.4344 135.356 90.3084 135.95 89.7863L137.928 88.0583C137.928 88.0583 144.689 91.9284 147.908 90.8664L148.826 86.2042Z" fill="#F97D7D"/>
<path d="M172.383 45.1092L170.765 75.404L146.146 81.7941L147.172 91.0104L177.257 87.8603C179.415 87.7163 181.393 86.7263 182.813 85.1422C183.587 84.2782 184 83.1262 184.144 81.9741L187.885 50.5453L172.383 45.1092Z" fill="#C20808"/>
<path d="M130.987 98.2826L165.909 92.1624C166.988 91.9824 167.69 90.9564 167.51 89.8764C167.33 88.7963 166.305 88.0943 165.226 88.2743L130.303 94.3945C129.224 94.5745 128.523 95.6005 128.703 96.6805C128.901 97.7606 129.926 98.4626 130.987 98.2826Z" fill="#243051"/>
<path d="M131.238 96.4105C131.04 96.4105 130.825 96.3205 130.681 96.1585L109.677 72.3079C109.407 72.0019 109.443 71.5339 109.749 71.2639C110.054 70.9939 110.522 71.0299 110.792 71.3359L131.814 95.1865C132.083 95.4925 132.047 95.9605 131.742 96.2305C131.598 96.3385 131.418 96.4105 131.238 96.4105Z" fill="#243051"/>
<path d="M172.113 35.4789C172.113 35.4789 182.076 59.4555 195.689 47.5032C209.302 35.5509 180.835 28.6567 180.835 28.6567L172.113 35.4789Z" fill="#243051"/>
<path d="M443.475 374.158L461.242 328.185C462.087 325.989 465.18 325.989 466.025 328.185L483.792 374.158H443.475Z" fill="#F49300"/>
<mask id="mask4_3068_669" style="mask-type:luminance" maskUnits="userSpaceOnUse" x="443" y="326" width="41" height="49">
<path d="M443.475 374.158L461.242 328.185C462.087 325.989 465.18 325.989 466.025 328.185L483.792 374.158H443.475Z" fill="white"/>
</mask>
<g mask="url(#mask4_3068_669)">
<path d="M479.153 338.067H447.593V346.905H479.153V338.067Z" fill="#FAFAFA"/>
</g>
<mask id="mask5_3068_669" style="mask-type:luminance" maskUnits="userSpaceOnUse" x="443" y="326" width="41" height="49">
<path d="M443.475 374.158L461.242 328.185C462.087 325.989 465.18 325.989 466.025 328.185L483.792 374.158H443.475Z" fill="white"/>
</mask>
<g mask="url(#mask5_3068_669)">
<path d="M481.563 354.789H445.885V363.628H481.563V354.789Z" fill="#FAFAFA"/>
</g>
<path d="M486.597 378.028H440.921C439.158 378.028 437.72 376.588 437.72 374.824C437.72 373.06 439.158 371.62 440.921 371.62H486.597C488.359 371.62 489.798 373.06 489.798 374.824C489.798 376.588 488.359 378.028 486.597 378.028Z" fill="#DC8400"/>
<path d="M107.843 321.182H93.9424V360.495H107.843V321.182Z" fill="#005FA0"/>
<path d="M181.105 321.182H167.204V360.495H181.105V321.182Z" fill="#005FA0"/>
<path d="M188.766 378.118H85.4723C82.1275 378.118 79.4121 375.4 79.4121 372.052V364.366C79.4121 361.018 82.1275 358.299 85.4723 358.299H188.766C192.11 358.299 194.826 361.018 194.826 364.366V372.052C194.826 375.4 192.11 378.118 188.766 378.118Z" fill="#004E84"/>
<path d="M186.859 324.369H88.6553C83.5482 324.369 79.4121 320.228 79.4121 315.116V298.178C79.4121 293.066 83.5482 288.926 88.6553 288.926H186.859C191.967 288.926 196.103 293.066 196.103 298.178V315.116C196.103 320.228 191.967 324.369 186.859 324.369Z" fill="#DC8400"/>
<mask id="mask6_3068_669" style="mask-type:luminance" maskUnits="userSpaceOnUse" x="79" y="288" width="118" height="37">
<path d="M186.859 324.369H88.6553C83.5482 324.369 79.4121 320.228 79.4121 315.116V298.178C79.4121 293.066 83.5482 288.926 88.6553 288.926H186.859C191.967 288.926 196.103 293.066 196.103 298.178V315.116C196.103 320.228 191.967 324.369 186.859 324.369Z" fill="white"/>
</mask>
<g mask="url(#mask6_3068_669)">
<path d="M77.9379 336.807H56.916L105.919 282.391H126.941L77.9379 336.807Z" fill="white"/>
</g>
<mask id="mask7_3068_669" style="mask-type:luminance" maskUnits="userSpaceOnUse" x="79" y="288" width="118" height="37">
<path d="M186.859 324.369H88.6553C83.5482 324.369 79.4121 320.228 79.4121 315.116V298.178C79.4121 293.066 83.5482 288.926 88.6553 288.926H186.859C191.967 288.926 196.103 293.066 196.103 298.178V315.116C196.103 320.228 191.967 324.369 186.859 324.369Z" fill="white"/>
</mask>
<g mask="url(#mask7_3068_669)">
<path d="M163.374 336.807H142.334L191.337 282.391H212.377L163.374 336.807Z" fill="white"/>
</g>
<mask id="mask8_3068_669" style="mask-type:luminance" maskUnits="userSpaceOnUse" x="79" y="288" width="118" height="37">
<path d="M186.859 324.369H88.6553C83.5482 324.369 79.4121 320.228 79.4121 315.116V298.178C79.4121 293.066 83.5482 288.926 88.6553 288.926H186.859C191.967 288.926 196.103 293.066 196.103 298.178V315.116C196.103 320.228 191.967 324.369 186.859 324.369Z" fill="white"/>
</mask>
<g mask="url(#mask8_3068_669)">
<path d="M119.783 336.807H98.7432L147.746 282.391H168.786L119.783 336.807Z" fill="white"/>
</g>
<path d="M0.59375 378.406H648.407" stroke="#102236" stroke-width="0.6539" stroke-miterlimit="10" stroke-linecap="round" stroke-linejoin="round"/>
</g>
<defs>
<clipPath id="clip0_3068_669">
<rect width="649" height="379" fill="white"/>
</clipPath>
</defs>
</svg>
